HIERARCHY
ROOT Hips
{
	OFFSET 0.000000 121.760803 0.000000
	CHANNELS 6 Xposition Yposition Zposition Xrotation Yrotation Zrotation 
	JOINT Spine
	{
		OFFSET 0.072000 7.257294 -0.789700
		CHANNELS 3 Xrotation Yrotation Zrotation
		JOINT Spine1
		{
			OFFSET 0.000000 12.508769 -0.658067
			CHANNELS 3 Xrotation Yrotation Zrotation
			JOINT Spine1_split
			{
				OFFSET 0.000000 12.508769 -0.658067
				CHANNELS 3 Xrotation Yrotation Zrotation
				JOINT Spine2
				{
					OFFSET 0.000000 12.508769 -0.658067
					CHANNELS 3 Xrotation Yrotation Zrotation
					JOINT Neck
					{
						OFFSET 0.000000 14.033295 7.520400
						CHANNELS 3 Xrotation Yrotation Zrotation
						JOINT Head
						{
							OFFSET 0.000000 8.198502 5.703100
							CHANNELS 3 Xrotation Yrotation Zrotation
							JOINT HeadTop_End
							{
								OFFSET 0.000000 17.760803 13.332701
								CHANNELS 3 Xrotation Yrotation Zrotation
								End Site
								{
									OFFSET 0.000000 0.000000 0.000000
								}
							}
						}
					}
					JOINT LeftShoulder
					{
						OFFSET 6.292450 5.785301 -0.669000
						CHANNELS 3 Xrotation Yrotation Zrotation
						JOINT LeftShoulder_split
						{
							OFFSET 6.292450 5.785301 -0.669000
							CHANNELS 3 Xrotation Yrotation Zrotation
							JOINT LeftArm
							{
								OFFSET 13.907140 -6.093903 1.965100
								CHANNELS 3 Xrotation Yrotation Zrotation
								JOINT LeftForeArm
								{
									OFFSET 34.140198 0.000000 0.000000
									CHANNELS 3 Xrotation Yrotation Zrotation
									JOINT LeftHand
									{
										OFFSET 40.960209 0.000000 0.000000
										CHANNELS 3 Xrotation Yrotation Zrotation
										JOINT LeftHandThumb1
										{
											OFFSET 10.006996 -7.170425 9.573125
											CHANNELS 3 Xrotation Yrotation Zrotation
											JOINT LeftHandThumb2
											{
												OFFSET 1.835007 -1.059448 1.059443
												CHANNELS 3 Xrotation Yrotation Zrotation
												JOINT LeftHandThumb3
												{
													OFFSET 2.112267 -1.219513 1.219518
													CHANNELS 3 Xrotation Yrotation Zrotation
													JOINT LeftHandThumb4
													{
														OFFSET 4.843811 -2.796570 2.796576
														CHANNELS 3 Xrotation Yrotation Zrotation
														End Site
														{
															OFFSET 0.000000 0.000000 0.000000
														}
													}
												}
											}
										}
										JOINT LeftHandIndex1
										{
											OFFSET 18.389847 -0.922348 4.596882
											CHANNELS 3 Xrotation Yrotation Zrotation
											JOINT LeftHandIndex2
											{
												OFFSET 4.711273 0.000000 0.000000
												CHANNELS 3 Xrotation Yrotation Zrotation
												JOINT LeftHandIndex3
												{
													OFFSET 2.886131 0.000000 0.000000
													CHANNELS 3 Xrotation Yrotation Zrotation
													JOINT LeftHandIndex4
													{
														OFFSET 6.145912 0.000000 0.000000
														CHANNELS 3 Xrotation Yrotation Zrotation
														End Site
														{
															OFFSET 0.000000 0.000000 0.000000
														}
													}
												}
											}
										}
										JOINT LeftHandMiddle1
										{
											OFFSET 18.013008 0.000000 0.000000
											CHANNELS 3 Xrotation Yrotation Zrotation
											JOINT LeftHandMiddle2
											{
												OFFSET 4.946693 0.000000 0.000000
												CHANNELS 3 Xrotation Yrotation Zrotation
												JOINT LeftHandMiddle3
												{
													OFFSET 3.342232 0.000000 0.000000
													CHANNELS 3 Xrotation Yrotation Zrotation
													JOINT LeftHandMiddle4
													{
														OFFSET 4.461754 0.000000 0.000000
														CHANNELS 3 Xrotation Yrotation Zrotation
														End Site
														{
															OFFSET 0.000000 0.000000 0.000000
														}
													}
												}
											}
										}
										JOINT LeftHandRing1
										{
											OFFSET 15.849892 -0.102921 -4.126150
											CHANNELS 3 Xrotation Yrotation Zrotation
											JOINT LeftHandRing2
											{
												OFFSET 3.527054 0.000000 0.000000
												CHANNELS 3 Xrotation Yrotation Zrotation
												JOINT LeftHandRing3
												{
													OFFSET 2.961098 0.000000 0.000000
													CHANNELS 3 Xrotation Yrotation Zrotation
													JOINT LeftHandRing4
													{
														OFFSET 4.927200 0.000000 0.000000
														CHANNELS 3 Xrotation Yrotation Zrotation
														End Site
														{
															OFFSET 0.000000 0.000000 0.000000
														}
													}
												}
											}
										}
										JOINT LeftHandPinky1
										{
											OFFSET 12.791824 -0.832031 -6.799156
											CHANNELS 3 Xrotation Yrotation Zrotation
											JOINT LeftHandPinky2
											{
												OFFSET 3.327133 0.000000 0.000000
												CHANNELS 3 Xrotation Yrotation Zrotation
												JOINT LeftHandPinky3
												{
													OFFSET 3.014900 0.000000 0.000000
													CHANNELS 3 Xrotation Yrotation Zrotation
													JOINT LeftHandPinky4
													{
														OFFSET 5.847786 0.000000 0.000000
														CHANNELS 3 Xrotation Yrotation Zrotation
														End Site
														{
															OFFSET 0.000000 0.000000 0.000000
														}
													}
												}
											}
										}
									}
								}
							}
						}
					}
					JOINT RightShoulder
					{
						OFFSET -6.292450 5.785301 -0.669000
						CHANNELS 3 Xrotation Yrotation Zrotation
						JOINT RightShoulder_split
						{
							OFFSET -6.292450 5.785301 -0.669000
							CHANNELS 3 Xrotation Yrotation Zrotation
							JOINT RightArm
							{
								OFFSET -13.907140 -6.093903 1.965100
								CHANNELS 3 Xrotation Yrotation Zrotation
								JOINT RightForeArm
								{
									OFFSET -34.140198 0.000000 0.000000
									CHANNELS 3 Xrotation Yrotation Zrotation
									JOINT RightHand
									{
										OFFSET -40.960209 0.000000 0.000000
										CHANNELS 3 Xrotation Yrotation Zrotation
										JOINT RightHandThumb1
										{
											OFFSET -10.007050 -7.170456 9.573117
											CHANNELS 3 Xrotation Yrotation Zrotation
											JOINT RightHandThumb2
											{
												OFFSET -1.835007 -1.059448 1.059443
												CHANNELS 3 Xrotation Yrotation Zrotation
												JOINT RightHandThumb3
												{
													OFFSET -2.112267 -1.219513 1.219518
													CHANNELS 3 Xrotation Yrotation Zrotation
													JOINT RightHandThumb4
													{
														OFFSET -4.843834 -2.796585 2.796590
														CHANNELS 3 Xrotation Yrotation Zrotation
														End Site
														{
															OFFSET 0.000000 0.000000 0.000000
														}
													}
												}
											}
										}
										JOINT RightHandIndex1
										{
											OFFSET -18.389870 -0.922424 4.596786
											CHANNELS 3 Xrotation Yrotation Zrotation
											JOINT RightHandIndex2
											{
												OFFSET -4.711273 0.000000 0.000000
												CHANNELS 3 Xrotation Yrotation Zrotation
												JOINT RightHandIndex3
												{
													OFFSET -2.886131 0.000000 0.000000
													CHANNELS 3 Xrotation Yrotation Zrotation
													JOINT RightHandIndex4
													{
														OFFSET -6.145920 0.000000 0.000000
														CHANNELS 3 Xrotation Yrotation Zrotation
														End Site
														{
															OFFSET 0.000000 0.000000 0.000000
														}
													}
												}
											}
										}
										JOINT RightHandMiddle1
										{
											OFFSET -18.013008 0.000000 0.000000
											CHANNELS 3 Xrotation Yrotation Zrotation
											JOINT RightHandMiddle2
											{
												OFFSET -4.946693 0.000000 0.000000
												CHANNELS 3 Xrotation Yrotation Zrotation
												JOINT RightHandMiddle3
												{
													OFFSET -3.342232 0.000000 0.000000
													CHANNELS 3 Xrotation Yrotation Zrotation
													JOINT RightHandMiddle4
													{
														OFFSET -4.461754 0.000000 0.000000
														CHANNELS 3 Xrotation Yrotation Zrotation
														End Site
														{
															OFFSET 0.000000 0.000000 0.000000
														}
													}
												}
											}
										}
										JOINT RightHandRing1
										{
											OFFSET -15.849876 -0.102936 -4.126237
											CHANNELS 3 Xrotation Yrotation Zrotation
											JOINT RightHandRing2
											{
												OFFSET -3.527054 0.000000 0.000000
												CHANNELS 3 Xrotation Yrotation Zrotation
												JOINT RightHandRing3
												{
													OFFSET -2.961098 0.000000 0.000000
													CHANNELS 3 Xrotation Yrotation Zrotation
													JOINT RightHandRing4
													{
														OFFSET -4.927200 0.000000 0.000000
														CHANNELS 3 Xrotation Yrotation Zrotation
														End Site
														{
															OFFSET 0.000000 0.000000 0.000000
														}
													}
												}
											}
										}
										JOINT RightHandPinky1
										{
											OFFSET -12.791786 -0.832077 -6.799222
											CHANNELS 3 Xrotation Yrotation Zrotation
											JOINT RightHandPinky2
											{
												OFFSET -3.327133 0.000000 0.000000
												CHANNELS 3 Xrotation Yrotation Zrotation
												JOINT RightHandPinky3
												{
													OFFSET -3.014900 0.000000 0.000000
													CHANNELS 3 Xrotation Yrotation Zrotation
													JOINT RightHandPinky4
													{
														OFFSET -5.847786 0.000000 0.000000
														CHANNELS 3 Xrotation Yrotation Zrotation
														End Site
														{
															OFFSET 0.000000 0.000000 0.000000
														}
													}
												}
											}
										}
									}
								}
							}
						}
					}
				}
			}
		}
	}
	JOINT LeftUpLeg
	{
		OFFSET 13.026900 -6.336304 -1.092800
		CHANNELS 3 Xrotation Yrotation Zrotation
		JOINT LeftLeg
		{
			OFFSET 0.524474 -46.096886 9.782700
			CHANNELS 3 Xrotation Yrotation Zrotation
			JOINT LeftFoot
			{
				OFFSET -0.524474 -53.427422 -12.948200
				CHANNELS 3 Xrotation Yrotation Zrotation
				JOINT LeftToeBase
				{
					OFFSET 0.192200 -14.009700 16.364100
					CHANNELS 3 Xrotation Yrotation Zrotation
					JOINT LeftToe_End
					{
						OFFSET -1.784700 -0.561700 9.474800
						CHANNELS 3 Xrotation Yrotation Zrotation
						End Site
						{
							OFFSET 0.000000 0.000000 0.000000
						}
					}
				}
			}
		}
	}
	JOINT RightUpLeg
	{
		OFFSET -12.883000 -6.336304 -1.092800
		CHANNELS 3 Xrotation Yrotation Zrotation
		JOINT RightLeg
		{
			OFFSET -0.524587 -46.096825 9.782800
			CHANNELS 3 Xrotation Yrotation Zrotation
			JOINT RightFoot
			{
				OFFSET 0.524587 -53.427383 -12.948300
				CHANNELS 3 Xrotation Yrotation Zrotation
				JOINT RightToeBase
				{
					OFFSET -0.192200 -14.009700 16.364100
					CHANNELS 3 Xrotation Yrotation Zrotation
					JOINT RightToe_End
					{
						OFFSET 1.784700 -0.561700 9.474800
						CHANNELS 3 Xrotation Yrotation Zrotation
						End Site
						{
							OFFSET 0.000000 0.000000 0.000000
						}
					}
				}
			}
		}
	}
}
MOTION
Frames: 4
Frame Time: 0.016667
0.888160 134.767960 -1.188072 -92.965500 1.002063 1.432342 3.828314 1.348358 -0.429188 17.173672 2.320172 -1.615368 0.000000 0.000000 0.000000 15.078710 2.910056 -1.904892 1.032870 0.830502 -3.592068 20.824670 3.567344 -10.053784 0.000002 -0.000001 0.000002 0.987223 5.865647 -0.070264 0.000000 0.000000 0.000000 17.540356 -48.233638 -39.213431 0.000125 -78.452973 0.000113 -11.155069 -10.690907 -3.204759 6.590540 -4.958656 16.122653 7.178845 21.567330 2.147326 -3.980788 36.507511 21.976002 0.000001 0.000000 0.000000 0.659523 4.932351 -26.024465 0.169793 1.401613 -13.813544 0.169798 1.401616 -13.813550 -0.000001 0.000004 -0.000000 1.376933 6.461962 -24.994176 0.169873 1.401965 -13.817110 0.169784 1.401618 -13.813563 0.000001 -0.000003 -0.000002 2.098719 8.644301 -21.209684 0.169790 1.401606 -13.813548 0.169787 1.401607 -13.813544 -0.000002 0.000002 0.000001 2.123428 10.735875 -14.817564 0.167497 1.392244 -13.719348 0.169814 1.401718 -13.814464 0.000002 0.000001 0.000001 1.003567 3.077427 16.318584 0.000000 0.000000 0.000000 -30.625342 39.526110 60.112563 0.000019 122.611253 -0.000013 2.149657 2.949032 16.100988 -3.770200 1.684401 8.767250 7.918249 -27.751663 -3.100774 -3.337683 -26.655594 -19.006774 -0.000004 -0.000001 -0.000001 -0.371389 2.206047 53.128336 1.396289 -3.326847 45.526667 0.376195 -1.835400 23.164137 0.000000 -0.000002 0.000000 -1.457703 -4.435177 63.714641 1.929816 -3.776450 54.123085 1.822473 -3.696601 52.475776 -0.000003 0.000000 0.000000 0.113605 -5.549216 69.688044 2.144051 -3.922169 57.313244 2.117704 -3.905164 56.927219 0.000001 0.000000 0.000001 2.818449 -6.533418 66.047595 2.835552 -4.286851 66.951625 2.835548 -4.286871 66.951591 -0.000000 -0.000001 -0.000003 -2.862100 18.044585 18.539671 5.692957 5.270570 1.551258 23.091715 29.475920 -30.536150 2.018182 0.000001 0.000005 0.000000 0.000001 -0.000000 -1.260388 -17.911556 -12.869378 4.315684 -7.259169 -8.219427 33.966999 -29.243984 29.739542 -6.237105 0.000006 -0.000010 -0.000001 -0.000003 0.000000 
0.836954 134.713150 -1.118347 -92.873545 0.854117 1.348688 3.761747 1.324528 -0.398617 16.775790 2.298674 -1.540693 0.000000 0.000000 0.000000 14.708496 2.873935 -1.840032 1.206949 0.819802 -3.467083 21.720500 3.566616 -10.135175 0.000005 -0.000001 -0.000000 1.057897 5.646925 -0.072703 0.000000 0.000000 0.000000 17.692927 -47.941129 -39.648852 0.000275 -78.307108 0.000275 -11.274811 -10.604925 -3.471101 6.590537 -4.958656 16.122655 7.178846 21.567331 2.147325 -3.980790 36.507515 21.975997 0.000002 0.000001 0.000000 0.659523 4.932354 -26.024467 0.169793 1.401615 -13.813544 0.169799 1.401611 -13.813547 0.000001 0.000003 -0.000002 1.376934 6.461965 -24.994176 0.169876 1.401970 -13.817110 0.169785 1.401619 -13.813567 0.000000 -0.000003 -0.000001 2.098720 8.644302 -21.209684 0.169791 1.401608 -13.813547 0.169785 1.401610 -13.813547 -0.000001 -0.000002 -0.000000 2.123430 10.735874 -14.817568 0.167500 1.392246 -13.719352 0.169810 1.401714 -13.814467 -0.000001 0.000002 0.000000 0.998596 3.039516 16.387540 0.000000 0.000000 0.000000 -30.378376 39.942396 60.251885 -0.000036 121.965513 0.000036 1.852884 2.561974 15.661380 -3.770214 1.684406 8.767248 7.918250 -27.751663 -3.100780 -3.337716 -26.655600 -19.006799 -0.000000 -0.000001 -0.000002 -0.371413 2.206061 53.128360 1.396298 -3.326847 45.526653 0.376195 -1.835385 23.164149 0.000000 -0.000001 0.000000 -1.457721 -4.435175 63.714641 1.929822 -3.776462 54.123075 1.822465 -3.696617 52.475766 -0.000001 0.000006 0.000005 0.113570 -5.549212 69.688024 2.144037 -3.922158 57.313265 2.117705 -3.905191 56.927219 -0.000002 0.000001 -0.000000 2.818437 -6.533420 66.047588 2.835555 -4.286862 66.951591 2.835567 -4.286858 66.951618 -0.000004 0.000001 0.000001 -2.952522 18.018980 18.550283 5.613778 5.352780 1.591689 23.593700 29.479363 -30.545757 1.641670 -0.000005 -0.000011 -0.000001 -0.000000 0.000000 -1.446808 -17.859714 -12.791396 4.278833 -7.365761 -8.070703 34.235948 -29.065679 29.514361 -6.538356 -0.000008 -0.000016 0.000001 -0.000001 0.000002 
0.799644 134.663635 -1.046646 -92.662390 0.771286 1.260007 3.665568 1.270314 -0.368521 16.309074 2.217897 -1.457732 0.000000 0.000000 0.000000 14.304883 2.791182 -1.752529 1.371171 0.810481 -3.366243 22.599865 3.500706 -10.232338 -0.000002 0.000000 -0.000000 1.036059 5.431822 -0.068783 0.000000 0.000000 0.000000 17.978668 -47.538967 -40.193751 -0.000187 -78.189478 -0.000223 -11.401794 -10.483620 -3.731912 6.590540 -4.958660 16.122650 7.178846 21.567333 2.147327 -3.980796 36.507511 21.975995 -0.000001 0.000001 -0.000002 0.659521 4.932347 -26.024469 0.169791 1.401613 -13.813544 0.169798 1.401614 -13.813549 -0.000002 0.000002 0.000000 1.376934 6.461963 -24.994174 0.169874 1.401970 -13.817106 0.169784 1.401625 -13.813567 -0.000002 0.000001 0.000002 2.098720 8.644299 -21.209684 0.169789 1.401610 -13.813550 0.169782 1.401616 -13.813545 0.000004 -0.000002 0.000003 2.123432 10.735871 -14.817569 0.167501 1.392243 -13.719355 0.169807 1.401718 -13.814464 -0.000000 -0.000001 -0.000002 1.002758 3.007376 16.447017 0.000000 0.000000 0.000000 -30.000718 40.337670 60.294287 -0.000005 121.436761 0.000012 1.901602 2.536349 15.603081 -3.770198 1.684401 8.767255 7.918245 -27.751665 -3.100780 -3.337672 -26.655600 -19.006781 0.000001 0.000000 0.000001 -0.371401 2.206056 53.128346 1.396299 -3.326839 45.526653 0.376186 -1.835393 23.164148 -0.000000 -0.000002 0.000000 -1.457712 -4.435182 63.714655 1.929833 -3.776455 54.123102 1.822469 -3.696611 52.475763 -0.000001 -0.000003 -0.000001 0.113498 -5.549181 69.688044 2.144047 -3.922164 57.313258 2.117710 -3.905167 56.927226 0.000000 0.000001 -0.000003 2.818443 -6.533423 66.047588 2.835556 -4.286858 66.951591 2.835549 -4.286856 66.951611 -0.000001 0.000000 0.000002 -3.040089 17.982790 18.557639 5.361917 5.451435 1.585240 24.314008 29.485367 -30.557170 0.988571 -0.000011 0.000008 -0.000001 0.000001 0.000000 -1.658473 -17.802111 -12.722127 4.066768 -7.482159 -7.860878 34.844620 -28.904268 29.317634 -7.028791 -0.000002 -0.000004 0.000001 -0.000001 0.000001 
0.783639 134.618484 -0.960014 -92.243815 0.782489 1.128374 3.561690 1.163734 -0.312572 15.819691 2.050238 -1.351606 0.000000 0.000000 0.000000 13.873238 2.617390 -1.626178 1.388074 0.796733 -3.274181 23.145664 3.425961 -10.301202 0.000001 0.000000 -0.000002 1.007911 5.213138 -0.072448 0.000000 0.000000 0.000000 18.126058 -46.854784 -41.156589 0.000231 -78.131524 0.000225 -11.365480 -10.354301 -4.045965 6.590540 -4.958664 16.122648 7.178845 21.567330 2.147327 -3.980796 36.507511 21.976004 -0.000000 -0.000001 -0.000003 0.659524 4.932348 -26.024469 0.169791 1.401621 -13.813543 0.169800 1.401616 -13.813550 0.000001 -0.000001 0.000002 1.376934 6.461960 -24.994171 0.169874 1.401968 -13.817110 0.169784 1.401619 -13.813564 0.000003 -0.000001 -0.000000 2.098719 8.644298 -21.209686 0.169792 1.401612 -13.813549 0.169786 1.401615 -13.813546 -0.000001 0.000000 -0.000000 2.123429 10.735870 -14.817571 0.167496 1.392238 -13.719354 0.169811 1.401716 -13.814464 -0.000002 -0.000004 -0.000000 0.964793 2.960578 16.488488 0.000000 0.000000 0.000000 -29.252167 40.564869 59.893137 -0.000025 121.381450 0.000038 2.367295 2.832867 15.788920 -3.770199 1.684401 8.767256 7.918247 -27.751665 -3.100778 -3.337697 -26.655600 -19.006806 0.000003 -0.000001 0.000000 -0.371396 2.206049 53.128336 1.396307 -3.326836 45.526660 0.376185 -1.835394 23.164153 -0.000001 0.000001 0.000000 -1.457720 -4.435185 63.714655 1.929832 -3.776452 54.123075 1.822463 -3.696619 52.475759 0.000001 0.000000 -0.000002 0.113326 -5.549142 69.688024 2.144052 -3.922165 57.313265 2.117701 -3.905163 56.927229 0.000002 0.000001 -0.000005 2.818441 -6.533420 66.047581 2.835552 -4.286867 66.951597 2.835544 -4.286851 66.951618 -0.000001 0.000001 0.000001 -3.312218 17.891496 18.613159 5.172369 5.667318 1.522074 25.202281 29.476904 -30.569939 0.245356 -0.000020 0.000003 -0.000000 -0.000001 0.000001 -2.041922 -17.720519 -12.394005 3.793911 -7.126147 -7.945554 36.129662 -29.186355 29.532218 -7.765482 0.000003 0.000008 0.000001 0.000001 -0.000000 
